<svg xmlns="http://www.w3.org/2000/svg" viewBox="0 0 16 16"><path d="M13.5 1h-11c-.271 0-.5.223-.5.498v13.004c0 .278.224.498.5.498h11c.271 0 .5-.223.5-.498V1.498A.497.497 0 0013.5 1zM3 2h1v12H3V2zm2 0h8v12H5V2zm1 1h6v1H6V3z"/><g style="line-height:1.25"><path d="M10.892 6.074v.838q-.49-.234-.924-.349-.434-.115-.838-.115-.702 0-1.085.273-.38.272-.38.774 0 .422.252.639.255.213.962.345l.519.106q.962.183 1.417.647.46.46.46 1.234 0 .924-.621 1.4-.618.477-1.814.477-.45 0-.961-.102-.507-.102-1.052-.302v-.885q.524.293 1.026.442.502.15.987.15.737 0 1.137-.29t.4-.826q0-.468-.29-.732-.285-.264-.94-.396L8.623 9.3q-.962-.192-1.391-.6-.43-.409-.43-1.137 0-.842.591-1.328.596-.485 1.639-.485.447 0 .91.081.465.081.95.243z"/></g></svg>
