<svg xmlns="http://www.w3.org/2000/svg" viewBox="0 0 16 16"><path d="M13.5 1h-11c-.271 0-.5.223-.5.498v13.004c0 .278.224.498.5.498h11c.271 0 .5-.223.5-.498V1.498A.497.497 0 0013.5 1zM3 2h1v12H3V2zm2 0h8v12H5V2zm1 1h6v1H6V3z"/><g style="line-height:1.25"><path d="M10.805 11.313V9.606H9.401V8.9h2.256v2.728q-.498.353-1.099.536-.6.18-1.28.18-1.49 0-2.333-.87-.839-.872-.839-2.425 0-1.558.839-2.426.843-.873 2.332-.873.622 0 1.18.153.561.154 1.034.452v.915q-.477-.405-1.013-.609-.537-.204-1.128-.204-1.167 0-1.754.651-.583.651-.583 1.94 0 1.286.583 1.937.587.652 1.754.652.455 0 .813-.077.357-.08.642-.247z"/></g></svg>
