<svg xmlns="http://www.w3.org/2000/svg" width="64" height="64" viewBox="0 0 16.933 16.933"><path fill="green" d="M0 0h16.961v16.933H0z"/><path d="M5.395 4.5h.882v.881h-.882v2.204a.882.882 0 0 1-.881.882.882.882 0 0 1 .881.881v2.204h.882v.881h-.882c-.471-.119-.881-.396-.881-.881V9.789a.882.882 0 0 0-.882-.882h-.44v-.881h.44a.882.882 0 0 0 .882-.882V5.381a.882.882 0 0 1 .881-.881m6.171 0a.882.882 0 0 1 .882.881v1.763a.882.882 0 0 0 .881.882h.44v.881h-.44a.882.882 0 0 0-.881.882v1.763a.882.882 0 0 1-.882.881h-.882v-.881h.882V9.348a.882.882 0 0 1 .882-.881.882.882 0 0 1-.882-.882V5.381h-.882V4.5h.882M8.481 9.789a.44.44 0 0 1 .44.44.44.44 0 0 1-.44.441.44.44 0 0 1-.441-.44.44.44 0 0 1 .44-.441m-1.762 0a.44.44 0 0 1 .44.44.44.44 0 0 1-.44.441.44.44 0 0 1-.441-.44.44.44 0 0 1 .44-.441m3.527 0a.44.44 0 0 1 .44.44.44.44 0 0 1-.44.441.44.44 0 0 1-.441-.44.44.44 0 0 1 .44-.441z" fill="#fff"/></svg>